<?xml version="1.0" encoding="UTF-8" standalone="no"?>
<!-- Generator: Adobe Illustrator 20.1.0, SVG Export Plug-In . SVG Version: 6.00 Build 0)  -->

<svg
   xmlns:dc="http://purl.org/dc/elements/1.1/"
   xmlns:cc="http://creativecommons.org/ns#"
   xmlns:rdf="http://www.w3.org/1999/02/22-rdf-syntax-ns#"
   xmlns:svg="http://www.w3.org/2000/svg"
   xmlns="http://www.w3.org/2000/svg"
   xmlns:sodipodi="http://sodipodi.sourceforge.net/DTD/sodipodi-0.dtd"
   xmlns:inkscape="http://www.inkscape.org/namespaces/inkscape"
   version="1.1"
   id="Calque_1"
   x="0px"
   y="0px"
   viewBox="0 0 150 150"
   style="enable-background:new 0 0 150 150;"
   xml:space="preserve"
   inkscape:version="0.91 r13725"
   sodipodi:docname="icom.svg"><metadata
     id="metadata11"><rdf:RDF><cc:Work
         rdf:about=""><dc:format>image/svg+xml</dc:format><dc:type
           rdf:resource="http://purl.org/dc/dcmitype/StillImage" /><dc:title /></cc:Work></rdf:RDF></metadata><defs
     id="defs9" /><sodipodi:namedview
     pagecolor="#ffffff"
     bordercolor="#666666"
     borderopacity="1"
     objecttolerance="10"
     gridtolerance="10"
     guidetolerance="10"
     inkscape:pageopacity="0"
     inkscape:pageshadow="2"
     inkscape:window-width="979"
     inkscape:window-height="586"
     id="namedview7"
     showgrid="false"
     inkscape:zoom="1.5733333"
     inkscape:cx="38.135593"
     inkscape:cy="-1.27119"
     inkscape:window-x="71"
     inkscape:window-y="88"
     inkscape:window-maximized="0"
     inkscape:current-layer="Calque_1" /><style
     type="text/css"
     id="style3">
	.st0{fill:#3F3F3F;}
</style><path
     class="st0"
     d="M149,18.7l-14.1-3.6L131.3,1l-27,27L93.8,49.2L69.3,73.7c-1.9,1.9-1.9,5.1,0,7c0.9,0.9,2.2,1.5,3.5,1.5  c1.3,0,2.6-0.5,3.5-1.5l16.9-16.9c2.5,3.8,4,8.4,4,13.4c0,13.5-11,24.4-24.4,24.4c-13.5,0-24.4-11-24.4-24.4  c0-13.5,11-24.4,24.4-24.4c1.3,0,2.5,0.1,3.7,0.3l10.9-10.9c-4.5-1.9-9.4-2.9-14.6-2.9c-20.9,0-37.9,17-37.9,37.9  c0,20.9,17,37.9,37.9,37.9c20.9,0,37.9-17,37.9-37.9c0-8.3-2.7-15.9-7.2-22.1l16.8-8.5c5.7,8.8,9.1,19.3,9.1,30.6  c0,31.2-25.4,56.6-56.6,56.6s-56.6-25.4-56.6-56.6c0-31.2,25.4-56.6,56.6-56.6c6.8,0,13.3,1.2,19.3,3.4l11.6-11.6  c-9.4-4.5-19.9-7-31-7C33.2,5.4,1,37.6,1,77.2C1,116.8,33.2,149,72.8,149c39.6,0,71.8-32.2,71.8-71.8c0-15.3-4.8-29.5-13-41.1  L149,18.7z"
     id="path5"
     style="fill:#000000" /></svg>